<svg width="32" height="32" viewBox="0 0 32 32" fill="none" xmlns="http://www.w3.org/2000/svg">
<g transform="translate(4, 4)">
<path d="M8.8 16.8L10.6667 14.9L7.76667 12L10.6667 9.1L8.8 7.2L4 12L8.8 16.8V16.8M15.2 16.8L20 12L15.2 7.2L13.3333 9.1L16.2333 12L13.3333 14.9L15.2 16.8V16.8M2.66667 24C1.93333 24 1.30556 23.7389 0.783333 23.2167C0.261111 22.6944 0 22.0667 0 21.3333V2.66667C0 1.93333 0.261111 1.30556 0.783333 0.783333C1.30556 0.261111 1.93333 0 2.66667 0H21.3333C22.0667 0 22.6944 0.261111 23.2167 0.783333C23.7389 1.30556 24 1.93333 24 2.66667V21.3333C24 22.0667 23.7389 22.6944 23.2167 23.2167C22.6944 23.7389 22.0667 24 21.3333 24H2.66667V24M2.66667 21.3333H21.3333V2.66667H2.66667V21.3333" fill="#DB3069"/>
</g>
</svg>
